<?xml version="1.0" encoding="utf-8"?>
<!-- Generator: Adobe Illustrator 24.0.1, SVG Export Plug-In . SVG Version: 6.00 Build 0)  -->
<svg version="1.1" id="Capa_1" xmlns="http://www.w3.org/2000/svg" xmlns:xlink="http://www.w3.org/1999/xlink" x="0px" y="0px"
	 viewBox="0 0 52.1 52.6" style="enable-background:new 0 0 52.1 52.6;" xml:space="preserve">
<style type="text/css">
	.st0{fill:none;stroke:#FFFFFF;stroke-width:2;stroke-linejoin:round;stroke-miterlimit:133.3333;}
</style>
<path class="st0" d="M1.5,15.2c0.1-2.7,0.5-4.4,1.1-5.9l0,0c0.6-1.5,1.4-2.9,2.6-4l0,0l0,0c1.1-1.1,2.5-2,4-2.6l0,0
	c1.5-0.6,3.2-1,5.9-1.1 M1.5,15.2C1.4,18.1,1.3,19,1.3,26.4c0,7.5,0,8.3,0.2,11.2 M1.5,15.2v0.7 M2.7,43.6c0.6,1.5,1.4,2.9,2.6,4
	l0,0l0,0c1.1,1.1,2.5,2,4,2.6l0,0c1.5,0.6,3.2,1,5.9,1.1 M2.7,43.6L2.7,43.6c-0.6-1.5-1-3.2-1.1-5.9 M2.7,43.6v-0.2 M1.5,37.7v0.2
	 M1.5,37.7V37 M2.6,43.4l-1-5.5 M2.6,43.4c-0.4-1.2-0.9-2.8-1-5.5 M2.6,43.4v0.1c0.6,1.5,1.5,2.9,2.6,4c1.1,1.2,2.5,2.1,4,2.6
	c1.2,0.5,2.9,1,5.9,1.1s3.9,0.2,11.2,0.2c7.3,0,8.3,0,11.2-0.2c2.9-0.1,4.6-0.6,5.9-1.1c1.5-0.6,2.9-1.5,4-2.6c1.2-1.1,2-2.5,2.6-4
	c0.5-1.2,1-2.9,1.1-5.9s0.2-3.9,0.2-11.2c0-7.3,0-8.3-0.2-11.2c-0.1-2.9-0.6-4.7-1.1-5.9c-0.6-1.6-1.4-2.8-2.6-4s-2.4-2-4-2.6
	c-1.2-0.5-2.9-1-5.9-1.1c-0.3,0-0.5,0-0.7,0 M1.6,37.9c0-0.1,0-0.2,0-0.2c0-0.3,0-0.5,0-0.7 M15.2,1.6c2.9-0.1,3.8-0.2,11.2-0.2
	c7.5,0,8.3,0,11.2,0.2 M15.2,1.6h0.7 M37.6,1.6h-0.7 M37.6,1.6c2.7,0.1,4.4,0.5,5.9,1.1l0,0c1.5,0.6,2.9,1.4,4,2.6l0,0l0,0
	c1.1,1.1,2,2.5,2.6,4l0,0c0.6,1.5,1,3.2,1.1,5.9 M15.9,1.6h21 M15.9,1.6c2.4-0.1,3.8-0.1,10.5-0.1s8.1,0,10.5,0.1 M15.9,1.6
	c-0.2,0-0.5,0-0.7,0c-2.9,0.1-4.6,0.6-5.9,1.1c-1.5,0.6-2.9,1.5-4,2.6c-1.2,1.2-2,2.4-2.6,4c-0.5,1.2-1,2.9-1.1,5.9
	c0,0.3,0,0.5,0,0.7 M51.2,37.7c-0.1,2.7-0.5,4.4-1.1,5.9l0,0c-0.6,1.5-1.4,2.9-2.6,4l0,0l0,0c-1.1,1.1-2.5,2-4,2.6l0,0
	c-1.5,0.6-3.2,1-5.9,1.1 M1.5,36.9c-0.1-2.4-0.1-3.8-0.1-10.5s0-8.1,0.1-10.5 M1.5,36.9v-21 M21.9,37.2c1.4,0.6,2.9,0.9,4.4,0.9
	c3.1,0,6-1.2,8.2-3.4c2.2-2.2,3.4-5.1,3.4-8.2s-1.2-6-3.4-8.2c-2.2-2.2-5.1-3.4-8.2-3.4c-1.5,0-3,0.3-4.4,0.9s-2.7,1.4-3.8,2.5
	c-1.1,1.1-1.9,2.4-2.5,3.8c-0.6,1.4-0.9,2.9-0.9,4.4s0.3,3,0.9,4.4c0.6,1.4,1.4,2.7,2.5,3.8C19.2,35.8,20.5,36.6,21.9,37.2z
	 M18.1,18.2c2.2-2.2,5.2-3.4,8.2-3.4c3.1,0,6.1,1.2,8.2,3.4c2.2,2.2,3.4,5.2,3.4,8.2c0,3.1-1.2,6.1-3.4,8.2
	c-2.2,2.2-5.2,3.4-8.2,3.4c-3.1,0-6.1-1.2-8.2-3.4c-2.2-2.2-3.4-5.2-3.4-8.2C14.7,23.4,15.9,20.4,18.1,18.2z M44.6,12.1
	c0,0.9-0.4,1.7-1,2.4c-0.6,0.6-1.5,1-2.4,1s-1.7-0.4-2.4-1c-0.6-0.6-1-1.5-1-2.4s0.4-1.7,1-2.4c0.6-0.6,1.5-1,2.4-1s1.7,0.4,2.4,1
	C44.3,10.3,44.6,11.2,44.6,12.1z"/>
</svg>
