<?xml version="1.0" encoding="utf-8"?>
<!-- Generator: Adobe Illustrator 24.0.1, SVG Export Plug-In . SVG Version: 6.00 Build 0)  -->
<svg version="1.1" id="Capa_1" xmlns="http://www.w3.org/2000/svg" xmlns:xlink="http://www.w3.org/1999/xlink" x="0px" y="0px"
	 viewBox="0 0 800 800" style="enable-background:new 0 0 800 800;" xml:space="preserve">
<style type="text/css">
	.st0{fill:#FFFFFF;}
</style>
<g>
	<path class="st0" d="M682.8,117.2C607.3,41.6,506.8,0,400,0S192.7,41.6,117.2,117.2C41.6,192.7,0,293.2,0,400
		c0,77.6,22,151.8,62.9,215.6c0.6,2.7,2.2,5.1,4.4,6.7c14.4,21.5,31.1,41.8,49.8,60.6C192.7,758.4,293.2,800,400,800
		s207.3-41.6,282.8-117.2C758.4,607.3,800,506.8,800,400S758.4,192.7,682.8,117.2z M133.8,133.8C204.9,62.6,299.4,23.5,400,23.5
		s195.1,39.2,266.2,110.3c71.1,71.1,110.3,165.7,110.3,266.2c0,8.7-0.3,17.3-0.9,25.8h-37.5c-4.8,0-16.4-3.3-39.9-25.3
		c-17.3-16.2-35.9-37.5-52.3-56.2c-8.8-10.1-17.1-19.6-24.4-27.5c-25.8-27.7-51.2-10.5-66.4-0.2c-5.8,4-12.4,8.4-16.6,8.9
		c-2.6-3.3-5.1-6.7-7.7-10.2c-10.6-14.3-21.7-29.1-37.2-38.2c-9.5-5.6-21.9-16.4-33.9-26.9c-22.9-20-42.7-37.3-59.8-37.3
		c-14.6,0-34,16.1-68.9,51.7c-18.6,7.1-38.1,9.3-57,11.5c-20.8,2.4-40.5,4.6-55.5,13.7c-5.3,3.2-11.4,10.4-24.8,26.6
		c-31.7,38.3-90.6,109.5-144.5,109.5H24.4c-0.6-8.6-0.9-17.2-0.9-25.8C23.5,299.4,62.6,204.9,133.8,133.8z M675.5,425.8
		c-26.1,0-42.2-16.8-60.8-36.2c-13.6-14.2-27.7-28.9-47-37.9c-4.4-2-8.3-4.7-12.1-7.8c4.3-2.3,8.5-5.1,12.6-7.9
		c17.7-12,24.9-15.1,36-3.2c7.1,7.6,15.3,17,23.9,26.9c23.2,26.6,44.2,49.9,63.1,66.1L675.5,425.8L675.5,425.8z M230.9,452.7
		c13.4-15.2,25-28.4,43.7-28.4c0.6,0.2,7.2,3.3,16.7,25.9c1.9,4.6,3.6,9.2,5.1,13.3h-75.2C224.6,459.9,227.8,456.2,230.9,452.7z
		 M305.6,425.8c-9.4-16.8-19.6-25-30.9-25c-22.9,0-38.3,11.8-51.1,25h-34.4c15.4-7.2,35.5-18.4,45-31.5c3.6-5,6.5-10.3,9.5-16
		c6-11.3,12.3-23,24.9-31.1l5.2-3.4c12.3-7.9,19.7-12.6,32.8-22c5.3-3.8,13.6-12.3,27.8-27c12.4-12.8,26.3-27.3,39.3-39.1
		c19-17.3,25.4-19.1,26.5-19.3c8.4,0.2,29.9,19.1,44.1,31.5c13.4,11.7,26,22.8,37.4,29.5c11.5,6.7,20.6,19,30.3,32
		c12.5,16.8,25.5,34.2,45.9,43.7c15.2,7.1,27.2,19.6,39.9,32.8c6.4,6.7,13,13.6,20.4,20L305.6,425.8L305.6,425.8z M118.7,423.9
		c38.1-26.1,71.6-66.5,93.2-92.6c7.6-9.2,16.2-19.5,18.9-21.5c10.7-6.4,27-8.2,46-10.4c7.4-0.8,15.2-1.7,23.2-3
		c-3.1,3-5.6,5.3-7,6.3c-12.7,9-19.5,13.4-31.9,21.4l-5.2,3.4c-17.8,11.5-26.2,27.2-33,39.8c-2.6,4.9-5.1,9.6-7.8,13.2
		C203.3,396.9,155,417.6,118.7,423.9z M666.2,666.2C595.1,737.4,500.6,776.5,400,776.5s-195.1-39.2-266.2-110.3
		c-13.1-13.1-25.1-27-36-41.6h101.8c6.5,0,11.7-5.3,11.7-11.7c0-6.5-5.3-11.7-11.7-11.7h-118c-29.1-45.9-47.8-97.5-54.9-151.9h175.5
		c-8.3,8.3-16.8,14.1-27.6,14.1c-6.5,0-11.7,5.3-11.7,11.7c0,6.5,5.3,11.7,11.7,11.7h137.7c0,0,0,0,0,0c0,0,0,0,0,0h12.5
		c6.5,0,11.7-5.3,11.7-11.7c0-6.5-5.3-11.7-11.7-11.7h-3.8c-1.2-3.9-2.9-8.8-4.9-14.1h457.1c-4.6,35.3-14.1,69.5-28.2,101.8H600.4
		c-6.5,0-11.7,5.3-11.7,11.7s5.3,11.7,11.7,11.7h133.4C716.3,607.9,693.6,638.8,666.2,666.2z"/>
	<path class="st0" d="M149.5,198.8h162.8c6.5,0,11.7-5.3,11.7-11.7c0-30.6-24.9-55.6-55.6-55.6c-2.2,0-4.4,0.2-6.7,0.5
		c-13.7-12.5-31.1-19.3-49.7-19.3c-41,0-74.4,33.4-74.4,74.4C137.8,193.6,143,198.8,149.5,198.8z M212.1,136.2
		c14.2,0,27.4,5.8,37.2,16.4c2.9,3.1,7.3,4.4,11.4,3.4c3-0.7,5.4-1.1,7.7-1.1c13.6,0,25.2,8.4,29.9,20.4H162.6
		C167.9,152.9,188.1,136.2,212.1,136.2z"/>
	<path class="st0" d="M349.9,198.8h100.2h25h175.3c6.5,0,11.7-5.3,11.7-11.7c0-27.2-22.1-49.3-49.3-49.3c-2.2,0-4.4,0.2-6.6,0.5
		c-14.1-16.1-34.5-25.6-56-25.6c-18.7,0-36.5,7.1-50,19.5c-13.6-12.5-31.3-19.5-50.2-19.5c-18.6,0-36,6.8-49.7,19.3
		c-2.3-0.3-4.5-0.5-6.7-0.5c-30.6,0-55.6,24.9-55.6,55.6C338.2,193.6,343.4,198.8,349.9,198.8z M550.3,136.2
		c16.6,0,32.2,8.2,41.7,21.9c2.9,4.2,8.3,6,13.2,4.5c2.9-0.9,5.4-1.4,7.7-1.4c10,0,18.7,5.7,23,14.1H475.1h-10.5
		c4.3-8.4,13-14.1,23-14.1c2.3,0,4.8,0.4,7.7,1.4c4.9,1.5,10.2-0.3,13.2-4.5C518.1,144.4,533.7,136.2,550.3,136.2z M393.7,155
		c2.3,0,4.8,0.3,7.7,1.1c4.2,1,8.5-0.3,11.4-3.4c9.8-10.6,23-16.4,37.2-16.4c7.4,0,14.5,1.6,20.9,4.5c-15.4,5.5-27.3,18.6-31.2,34.7
		h-75.9C368.6,163.4,380.2,155,393.7,155z"/>
	<path class="st0" d="M337.4,524.5h100.2c6.5,0,11.7-5.3,11.7-11.7c0-6.5-5.3-11.7-11.7-11.7H337.4c-6.5,0-11.7,5.3-11.7,11.7
		C325.6,519.2,330.9,524.5,337.4,524.5z"/>
	<path class="st0" d="M475.1,551.1H287.3c-6.5,0-11.7,5.3-11.7,11.7s5.3,11.7,11.7,11.7h187.9c6.5,0,11.7-5.3,11.7-11.7
		S481.6,551.1,475.1,551.1z"/>
	<path class="st0" d="M562.8,551.1h-50.1c-6.5,0-11.7,5.3-11.7,11.7s5.3,11.7,11.7,11.7h50.1c6.5,0,11.7-5.3,11.7-11.7
		S569.3,551.1,562.8,551.1z"/>
	<path class="st0" d="M249.7,574.6c6.5,0,11.7-5.3,11.7-11.7s-5.3-11.7-11.7-11.7h-37.6c-6.5,0-11.7,5.3-11.7,11.7
		s5.3,11.7,11.7,11.7H249.7z"/>
	<path class="st0" d="M524.5,512.7c0-6.5-5.3-11.7-11.7-11.7h-25c-6.5,0-11.7,5.3-11.7,11.7c0,6.5,5.3,11.7,11.7,11.7h25
		C519.2,524.5,524.5,519.2,524.5,512.7z"/>
	<path class="st0" d="M337.4,601.2H237.2c-6.5,0-11.7,5.3-11.7,11.7c0,6.5,5.3,11.7,11.7,11.7h100.2c6.5,0,11.7-5.3,11.7-11.7
		C349.1,606.4,343.9,601.2,337.4,601.2z"/>
	<path class="st0" d="M312.3,651.3H187.1c-6.5,0-11.7,5.3-11.7,11.7c0,6.5,5.3,11.7,11.7,11.7h125.2c6.5,0,11.7-5.3,11.7-11.7
		C324.1,656.5,318.8,651.3,312.3,651.3z"/>
	<path class="st0" d="M412.5,601.2h-25c-6.5,0-11.7,5.3-11.7,11.7c0,6.5,5.3,11.7,11.7,11.7h25c6.5,0,11.7-5.3,11.7-11.7
		C424.3,606.4,419,601.2,412.5,601.2z"/>
</g>
</svg>
