<?xml version="1.0" encoding="utf-8"?>
<!-- Generator: Adobe Illustrator 24.0.1, SVG Export Plug-In . SVG Version: 6.00 Build 0)  -->
<svg version="1.1" id="Layer_2" xmlns="http://www.w3.org/2000/svg" xmlns:xlink="http://www.w3.org/1999/xlink" x="0px" y="0px"
	 viewBox="0 0 520 683" style="enable-background:new 0 0 520 683;" xml:space="preserve">
<style type="text/css">
	.st0{fill:none;stroke:#FFFFFF;stroke-width:20;stroke-miterlimit:10;}
</style>
<path class="st0" d="M260,12C123.6,12,13,122.6,13,259l0,0l0,0c0,5.7,0,11.3,0,16.7v1.3c10,135.3,122.3,244.2,247,385
	c130.2-147,247-258.3,247-403l0,0C507,122.6,396.4,12,260,12L260,12z M260,140.3c65.6,0,118.8,53.2,118.8,118.8S325.6,378,260,378
	s-118.8-53.2-118.8-118.8c0-0.1,0-0.1,0-0.2C141.3,193.4,194.4,140.3,260,140.3z"/>
</svg>
