<?xml version="1.0" encoding="utf-8"?>
<!-- Generator: Adobe Illustrator 24.0.1, SVG Export Plug-In . SVG Version: 6.00 Build 0)  -->
<svg version="1.1" id="Layer_1" xmlns="http://www.w3.org/2000/svg" xmlns:xlink="http://www.w3.org/1999/xlink" x="0px" y="0px"
	 viewBox="0 0 800 800" style="enable-background:new 0 0 800 800;" xml:space="preserve">
<style type="text/css">
	.st0{fill:#FFFFFF;}
</style>
<path class="st0" d="M651,56.3l14-34.2l-17.2-7.9l-34.7-1.5l-19.8-6.6l-14.9,13l-31.6,9.3l-26.4,48.1L493,75.7l-5.8,6.1l2.3,19.9
	L478.4,112l-9-10.9l-33.1,31l-1.9,4.9l-14.5-6.1l-11.2,11.6l4.9,12.5l15.5-4.1l-9.6,25.1l-12.2,14l-13.8,34.7l-20.9,8.9l6.8,13.6
	l-26.8,38.3l-29.4,75.3l7.3,12.5l-9.8,24.1l-0.7-0.7l-19.3,7.7l-45.6,63l16.4,13.5l17.3,5.5l-23.4,0.9l-6.5-12.5l-23.5,11.7
	l1.7,12.5l-0.5,0.4L201,514.8l-71.6,62.1l5.2,16l-3.9,75l9,11.7L124.4,706l18.1,24l-13,18l5.7,13.8l19.7,15.6l6,12l28.9,4.4
	l19.8-7.1l49-47.9l14.4-6.1l3.9-12.6l-4.6-19.8l13.7-8.4l-2,20.5l4,18.2l16,3.6l12.8-8.7l-4.2-17.6l5.7-14.1l17.6-18.2l1.7-22.7
	l-10.1-26.3l11.7-3.7l4.8-19l-20-19.7l-2.2-106.9l12.4-20.8l13.6-8.2l17.9,3.9l3.1-24.8l-12-7.6l15.2-31l5-42l-3.4-16l21.1-10
	l-2.2-12.2l19.5-33.8l-8.2-20.5l22-41.4l17.6-5l-2.2-21.6l37.7,5.8l5.5-8.2l-1.9-24.8l16-24.8l14.9,10.4l16.8,16.7l13.6,3.5
	l12.5-14.3l26.4,4.5l7.4-16.4l-3.9-47.1l5.8-14.6l11.7-2.2L615.6,61l14,12l16,2.8l20.3,12.6l8.5-13.6l1.2-16.8L651,56.3z
	 M405.2,187.6l-2.6-15.2l-11.4-5.2l-7.7,21.2l11.7,10.9L405.2,187.6z"/>
</svg>
