<?xml version="1.0" encoding="utf-8"?>
<!-- Generator: Adobe Illustrator 24.0.1, SVG Export Plug-In . SVG Version: 6.00 Build 0)  -->
<svg version="1.1" id="Capa_1" xmlns="http://www.w3.org/2000/svg" xmlns:xlink="http://www.w3.org/1999/xlink" x="0px" y="0px"
	 viewBox="0 0 65.2 70.3" style="enable-background:new 0 0 65.2 70.3;" xml:space="preserve">
<style type="text/css">
	.st0{fill:none;stroke:#FFFFFF;stroke-width:2;stroke-linecap:round;stroke-linejoin:round;stroke-miterlimit:133.3333;}
</style>
<path class="st0" d="M1.5,10.8c0,31.8,23.9,57.6,53.3,57.6c1.4,0,2.6,0,4-0.1c1.5-0.1,2.2-0.1,3-0.5c0.6-0.4,1.1-0.9,1.4-1.6
	c0.4-0.8,0.4-1.6,0.4-3.5V52.2c0-1.5,0-2.3-0.2-2.9c-0.2-0.5-0.5-1.1-1-1.5c-0.5-0.4-1.1-0.7-2.5-1.2l-11-4.3
	c-1.5-0.5-2.2-0.9-3-0.8c-0.6,0-1.2,0.3-1.7,0.7c-0.6,0.4-1,1.2-1.9,2.7l-2.8,5.1c-9.2-4.4-16.5-12.4-20.7-22.3l4.7-3.1
	c1.4-0.9,2.1-1.3,2.5-2c0.4-0.5,0.6-1.2,0.6-1.9c0-0.8-0.2-1.6-0.7-3.2l-4-11.9c-0.5-1.5-0.7-2.1-1.1-2.7c-0.4-0.4-0.9-0.8-1.4-1.1
	c-0.6-0.3-1.2-0.3-2.7-0.3H7c-1.6,0-2.5,0-3.2,0.4C3.1,2.2,2.6,2.9,2.3,3.4C1.9,4.2,1.8,5,1.8,6.6C1.5,7.9,1.5,9.4,1.5,10.8z"/>
</svg>
