<?xml version="1.0" encoding="utf-8"?>
<!-- Generator: Adobe Illustrator 24.0.1, SVG Export Plug-In . SVG Version: 6.00 Build 0)  -->
<svg version="1.1" id="Layer_2" xmlns="http://www.w3.org/2000/svg" xmlns:xlink="http://www.w3.org/1999/xlink" x="0px" y="0px"
	 viewBox="0 0 52.5 44.3" style="enable-background:new 0 0 52.5 44.3;" xml:space="preserve">
<style type="text/css">
	.st0{fill:none;stroke:#FFFFFF;stroke-width:2;stroke-linecap:round;stroke-linejoin:round;stroke-miterlimit:66.6667;}
</style>
<path class="st0" d="M46.3,12.3v1.4c0,13.6-10.3,29.2-29.2,29.2c-5.6,0-11-1.6-15.7-4.7c0.8,0.1,1.6,0.2,2.4,0.1
	c4.6,0,9.1-1.5,12.8-4.4C12.2,33.8,8.3,31,7,26.8C7.6,26.9,8.3,27,8.9,27c0.9,0,1.8-0.1,2.7-0.4c-4.8-1-8.2-5.2-8.2-10.1v-0.1
	c1.4,0.8,3,1.2,4.6,1.3c-4.5-3-5.9-8.9-3.2-13.6C10,10.5,17.7,14.4,26,14.8c-0.2-0.8-0.3-1.6-0.3-2.4C25.5,6.8,29.9,2,35.5,1.8
	c3-0.1,5.9,1.1,8,3.4C45.8,4.7,48,3.9,50,2.7c-0.8,2.4-2.4,4.5-4.6,5.8c2-0.3,4-0.9,5.9-1.7C50,9,48.3,10.8,46.3,12.3L46.3,12.3z"/>
</svg>
